<svg width="75" height="44" viewBox="0 0 75 44" fill="none" xmlns="http://www.w3.org/2000/svg">
<path d="M25.9585 31.47L20.1432 37.4212C18.2184 39.3674 15.6193 40.4552 12.9135 40.447C10.2076 40.4387 7.61492 39.335 5.70157 37.3769C3.78823 35.4188 2.7097 32.7653 2.70155 29.9961C2.69337 27.2269 3.75624 24.5668 5.65799 22.5971L14.3439 13.7079C14.3393 13.5512 14.3363 13.3944 14.3363 13.237C14.3354 11.9132 14.5015 10.5948 14.8303 9.31445L3.75584 20.6482C1.34446 23.1337 -0.00609097 26.496 2.06525e-05 29.9985C0.0061323 33.501 1.36841 36.8584 3.78844 39.335C6.20848 41.8116 9.489 43.2057 12.9114 43.2118C16.3338 43.2181 19.6192 41.836 22.0478 39.3681L27.8628 33.4169L25.9585 31.47Z" fill="#091638"/>
<path d="M45.6773 43.2401C43.9788 43.243 42.2965 42.9025 40.727 42.2381C39.1576 41.5739 37.7317 40.5986 36.5316 39.3687L20.1432 22.5966C17.7232 20.113 16.3653 16.7479 16.3677 13.2404C16.3701 9.73297 17.7327 6.36986 20.1562 3.88974C22.5796 1.40963 25.8658 0.0152914 29.2932 0.0129424C32.7204 0.0105935 36.0085 1.40043 38.4351 3.87722L54.8235 20.6492C56.6332 22.4996 57.8659 24.8578 58.3654 27.4257C58.8652 29.9933 58.609 32.655 57.6299 35.0738C56.6505 37.4925 54.9922 39.5593 52.8645 41.0133C50.7368 42.467 48.2358 43.2418 45.6775 43.2401H45.6773ZM38.4351 37.4213C40.3608 39.3636 42.9586 40.4478 45.6623 40.4378C48.3658 40.4279 50.956 39.3242 52.8679 37.3675C54.7795 35.4111 55.858 32.7603 55.8677 29.9935C55.8775 27.2265 54.818 24.5677 52.9201 22.5971L36.5318 5.82511C35.5831 4.84012 34.4535 4.05698 33.2078 3.52079C31.9623 2.9846 30.6252 2.70598 29.274 2.70097C27.9224 2.69593 26.5835 2.96463 25.3342 3.49155C24.0849 4.01848 22.9496 4.79323 21.994 5.77114C21.0385 6.74906 20.2815 7.91081 19.7666 9.18948C19.2517 10.4682 18.9892 11.8384 18.9941 13.2214C18.999 14.6044 19.2712 15.9727 19.7952 17.2475C20.3191 18.5223 21.0843 19.6784 22.0468 20.6492L38.4351 37.4213Z" fill="#091638"/>
<path d="M52.92 3.87701L47.105 9.8282L49.0083 11.7761L54.8234 5.82491C56.7491 3.88263 59.3468 2.79829 62.0506 2.80831C64.7541 2.81835 67.3442 3.92196 69.2561 5.87851C71.1678 7.83504 72.2462 10.4858 72.256 13.2527C72.2657 16.0197 71.2063 18.6783 69.3084 20.649L60.6159 29.545C60.6598 31.0282 60.494 32.5101 60.1237 33.9445L71.2117 22.5969C73.6374 20.1145 75.0001 16.7476 75.0001 13.237C75.0001 9.72629 73.6374 6.35944 71.2117 3.87701C68.786 1.39461 65.4962 0 62.0658 0C58.6355 0 55.3457 1.39461 52.92 3.87701Z" fill="#091638"/>
</svg>
