<svg width="66" height="38" viewBox="0 0 66 38" fill="none" xmlns="http://www.w3.org/2000/svg">
<path d="M22.6843 27.5006L17.6025 32.7012C15.9205 34.4019 13.6492 35.3526 11.2847 35.3453C8.92012 35.3381 6.65443 34.3736 4.98242 32.6625C3.31041 30.9514 2.36792 28.6326 2.3608 26.2127C2.35365 23.7927 3.28246 21.4682 4.94433 19.7469L12.5346 11.9789C12.5307 11.842 12.528 11.7049 12.528 11.5674C12.5273 10.4106 12.6724 9.25848 12.9597 8.13965L3.2821 18.0438C1.17488 20.2158 -0.0053227 23.1541 1.80476e-05 26.2148C0.00535882 29.2755 1.19581 32.2094 3.3106 34.3736C5.42539 36.5379 8.29213 37.7561 11.2829 37.7615C14.2736 37.767 17.1446 36.5591 19.2668 34.4025L24.3484 29.202L22.6843 27.5006Z" fill="white"/>
<path d="M39.9159 37.7861C38.4317 37.7886 36.9615 37.4911 35.5901 36.9104C34.2186 36.33 32.9725 35.4777 31.9238 34.4029L17.6025 19.7464C15.4877 17.576 14.3011 14.6354 14.3032 11.5703C14.3053 8.50525 15.496 5.56634 17.6138 3.39904C19.7317 1.23176 22.6033 0.0132858 25.5984 0.0112331C28.5933 0.00918039 31.4667 1.22372 33.5872 3.3881L47.9085 18.0446C49.4899 19.6616 50.5671 21.7224 51.0037 23.9663C51.4404 26.2101 51.2165 28.5361 50.3609 30.6497C49.5051 32.7634 48.0559 34.5695 46.1966 35.8401C44.3373 37.1104 42.1518 37.7875 39.9161 37.7861H39.9159ZM33.5872 32.7011C35.27 34.3984 37.5401 35.3459 39.9028 35.3372C42.2654 35.3285 44.5288 34.364 46.1995 32.6542C47.8701 30.9445 48.8125 28.6281 48.821 26.2103C48.8295 23.7923 47.9037 21.4688 46.2452 19.7468L31.924 5.0903C31.0949 4.22955 30.1079 3.54518 29.0192 3.07663C27.9308 2.60807 26.7624 2.36459 25.5816 2.36021C24.4006 2.35581 23.2305 2.59062 22.1388 3.05108C21.047 3.51154 20.0549 4.18857 19.2199 5.04314C18.3849 5.8977 17.7234 6.91293 17.2734 8.03031C16.8235 9.1477 16.5941 10.3452 16.5984 11.5537C16.6026 12.7622 16.8406 13.9579 17.2984 15.072C17.7562 16.186 18.4249 17.1963 19.266 18.0446L33.5872 32.7011Z" fill="white"/>
<path d="M46.2452 3.38799L41.1636 8.58854L42.8268 10.2907L47.9084 5.0902C49.5912 3.3929 51.8613 2.44533 54.224 2.45409C56.5865 2.46287 58.85 3.42727 60.5207 5.13704C62.1913 6.84679 63.1337 9.16318 63.1422 11.5811C63.1507 13.9991 62.2249 16.3224 60.5664 18.0445L52.9703 25.8184C53.0087 27.1145 52.8638 28.4095 52.5402 29.663L62.2297 19.7467C64.3494 17.5774 65.5402 14.6352 65.5402 11.5673C65.5402 8.49949 64.3494 5.55731 62.2297 3.38799C60.1099 1.2187 57.2351 0 54.2373 0C51.2397 0 48.3649 1.2187 46.2452 3.38799Z" fill="white"/>
</svg>
