# Blender v2.83.2 OBJ File: ''
# www.blender.org
mtllib Torus.mtl
o Torus
v 1.250000 0.000000 0.000000
v 1.155872 0.195458 0.000000
v 0.944370 0.243732 0.000000
v 0.774758 0.108471 0.000000
v 0.774758 -0.108471 0.000000
v 0.944370 -0.243732 0.000000
v 1.155872 -0.195458 0.000000
v 1.165590 0.000000 -0.451552
v 1.077819 0.195458 -0.417549
v 0.880599 0.243732 -0.341146
v 0.722440 0.108471 -0.279875
v 0.722440 -0.108471 -0.279875
v 0.880599 -0.243732 -0.341146
v 1.077819 -0.195458 -0.417549
v 0.923761 0.000000 -0.842120
v 0.854200 0.195458 -0.778706
v 0.697898 0.243732 -0.636218
v 0.572553 0.108471 -0.521951
v 0.572553 -0.108471 -0.521951
v 0.697898 -0.243732 -0.636218
v 0.854200 -0.195458 -0.778706
v 0.557173 0.000000 -1.118954
v 0.515217 0.195458 -1.034695
v 0.420942 0.243732 -0.845365
v 0.345339 0.108471 -0.693535
v 0.345339 -0.108471 -0.693535
v 0.420942 -0.243732 -0.845365
v 0.515217 -0.195458 -1.034695
v 0.115335 0.000000 -1.244668
v 0.106650 0.195458 -1.150942
v 0.087135 0.243732 -0.940341
v 0.071486 0.108471 -0.771453
v 0.071486 -0.108471 -0.771453
v 0.087135 -0.243732 -0.940341
v 0.106650 -0.195458 -1.150942
v -0.342079 0.000000 -1.202282
v -0.316319 0.195458 -1.111748
v -0.258439 0.243732 -0.908319
v -0.212022 0.108471 -0.745182
v -0.212022 -0.108471 -0.745182
v -0.258439 -0.243732 -0.908319
v -0.316319 -0.195458 -1.111748
v -0.753293 0.000000 -0.997522
v -0.696569 0.195458 -0.922406
v -0.569110 0.243732 -0.753623
v -0.466896 0.108471 -0.618270
v -0.466896 -0.108471 -0.618270
v -0.569110 -0.243732 -0.753623
v -0.696569 -0.195458 -0.922406
v -1.062771 0.000000 -0.658040
v -0.982742 0.195458 -0.608489
v -0.802919 0.243732 -0.497147
v -0.658712 0.108471 -0.407858
v -0.658712 -0.108471 -0.407858
v -0.802919 -0.243732 -0.497147
v -0.982742 -0.195458 -0.608489
v -1.228716 0.000000 -0.229687
v -1.136191 0.195458 -0.212391
v -0.928290 0.243732 -0.173528
v -0.761566 0.108471 -0.142361
v -0.761566 -0.108471 -0.142361
v -0.928290 -0.243732 -0.173528
v -1.136191 -0.195458 -0.212391
v -1.228716 0.000000 0.229687
v -1.136191 0.195458 0.212391
v -0.928290 0.243732 0.173528
v -0.761566 0.108471 0.142361
v -0.761566 -0.108471 0.142361
v -0.928290 -0.243732 0.173528
v -1.136191 -0.195458 0.212391
v -1.062772 0.000000 0.658040
v -0.982743 0.195458 0.608488
v -0.802920 0.243732 0.497146
v -0.658712 0.108471 0.407857
v -0.658712 -0.108471 0.407857
v -0.802920 -0.243732 0.497146
v -0.982743 -0.195458 0.608488
v -0.753294 0.000000 0.997521
v -0.696569 0.195458 0.922406
v -0.569110 0.243732 0.753623
v -0.466896 0.108471 0.618270
v -0.466896 -0.108471 0.618270
v -0.569110 -0.243732 0.753623
v -0.696569 -0.195458 0.922406
v -0.342079 0.000000 1.202282
v -0.316320 0.195458 1.111748
v -0.258439 0.243732 0.908319
v -0.212023 0.108471 0.745182
v -0.212023 -0.108471 0.745182
v -0.258439 -0.243732 0.908319
v -0.316320 -0.195458 1.111748
v 0.115335 0.000000 1.244668
v 0.106650 0.195458 1.150942
v 0.087135 0.243732 0.940341
v 0.071486 0.108471 0.771453
v 0.071486 -0.108471 0.771453
v 0.087135 -0.243732 0.940341
v 0.106650 -0.195458 1.150942
v 0.557173 0.000000 1.118954
v 0.515217 0.195458 1.034695
v 0.420942 0.243732 0.845365
v 0.345339 0.108471 0.693535
v 0.345339 -0.108471 0.693535
v 0.420942 -0.243732 0.845365
v 0.515217 -0.195458 1.034695
v 0.923761 0.000000 0.842120
v 0.854200 0.195458 0.778707
v 0.697897 0.243732 0.636218
v 0.572553 0.108471 0.521951
v 0.572553 -0.108471 0.521951
v 0.697897 -0.243732 0.636218
v 0.854200 -0.195458 0.778707
v 1.165590 0.000000 0.451553
v 1.077819 0.195458 0.417550
v 0.880598 0.243732 0.341146
v 0.722440 0.108471 0.279875
v 0.722440 -0.108471 0.279875
v 0.880598 -0.243732 0.341146
v 1.077819 -0.195458 0.417550
vn 0.8885 0.4279 -0.1661
vn 0.2223 0.9741 -0.0416
vn -0.6193 0.7766 0.1158
vn -0.9830 0.0000 0.1837
vn -0.6193 -0.7766 0.1158
vn 0.2223 -0.9741 -0.0416
vn 0.8885 -0.4279 -0.1661
vn 0.7685 0.4279 -0.4758
vn 0.1923 0.9741 -0.1191
vn -0.5357 0.7766 0.3317
vn -0.8502 0.0000 0.5264
vn -0.5357 -0.7766 0.3317
vn 0.1923 -0.9741 -0.1191
vn 0.7685 -0.4279 -0.4758
vn 0.5447 0.4279 -0.7213
vn 0.1363 0.9741 -0.1805
vn -0.3797 0.7766 0.5028
vn -0.6026 0.0000 0.7980
vn -0.3797 -0.7766 0.5028
vn 0.1363 -0.9741 -0.1805
vn 0.5447 -0.4279 -0.7213
vn 0.2473 0.4279 -0.8693
vn 0.0619 0.9741 -0.2175
vn -0.1724 0.7766 0.6060
vn -0.2737 0.0000 0.9618
vn -0.1724 -0.7766 0.6060
vn 0.0619 -0.9741 -0.2175
vn 0.2473 -0.4279 -0.8693
vn -0.0834 0.4279 -0.9000
vn -0.0209 0.9741 -0.2252
vn 0.0581 0.7766 0.6273
vn 0.0923 0.0000 0.9957
vn 0.0581 -0.7766 0.6273
vn -0.0209 -0.9741 -0.2252
vn -0.0834 -0.4279 -0.9000
vn -0.4029 0.4279 -0.8091
vn -0.1008 0.9741 -0.2025
vn 0.2808 0.7766 0.5640
vn 0.4457 0.0000 0.8952
vn 0.2808 -0.7766 0.5640
vn -0.1008 -0.9741 -0.2025
vn -0.4029 -0.4279 -0.8091
vn -0.6680 0.4279 -0.6089
vn -0.1671 0.9741 -0.1524
vn 0.4656 0.7766 0.4244
vn 0.7390 0.0000 0.6737
vn 0.4656 -0.7766 0.4244
vn -0.1671 -0.9741 -0.1524
vn -0.6680 -0.4279 -0.6089
vn -0.8428 0.4279 -0.3265
vn -0.2109 0.9741 -0.0817
vn 0.5875 0.7766 0.2276
vn 0.9325 0.0000 0.3612
vn 0.5875 -0.7766 0.2276
vn -0.2109 -0.9741 -0.0817
vn -0.8428 -0.4279 -0.3265
vn -0.9038 0.4279 0.0000
vn -0.2262 0.9741 0.0000
vn 0.6300 0.7766 0.0000
vn 1.0000 0.0000 0.0000
vn 0.6300 -0.7766 0.0000
vn -0.2262 -0.9741 0.0000
vn -0.9038 -0.4279 0.0000
vn -0.8428 0.4279 0.3265
vn -0.2109 0.9741 0.0817
vn 0.5875 0.7766 -0.2276
vn 0.9325 0.0000 -0.3612
vn 0.5875 -0.7766 -0.2276
vn -0.2109 -0.9741 0.0817
vn -0.8428 -0.4279 0.3265
vn -0.6680 0.4279 0.6089
vn -0.1671 0.9741 0.1524
vn 0.4656 0.7766 -0.4244
vn 0.7390 0.0000 -0.6737
vn 0.4656 -0.7766 -0.4244
vn -0.1671 -0.9741 0.1524
vn -0.6680 -0.4279 0.6089
vn -0.4029 0.4279 0.8091
vn -0.1008 0.9741 0.2025
vn 0.2808 0.7766 -0.5640
vn 0.4457 0.0000 -0.8952
vn 0.2808 -0.7766 -0.5640
vn -0.1008 -0.9741 0.2025
vn -0.4029 -0.4279 0.8091
vn -0.0834 0.4279 0.9000
vn -0.0209 0.9741 0.2252
vn 0.0581 0.7766 -0.6273
vn 0.0923 0.0000 -0.9957
vn 0.0581 -0.7766 -0.6273
vn -0.0209 -0.9741 0.2252
vn -0.0834 -0.4279 0.9000
vn 0.2473 0.4279 0.8693
vn 0.0619 0.9741 0.2175
vn -0.1724 0.7766 -0.6060
vn -0.2737 0.0000 -0.9618
vn -0.1724 -0.7766 -0.6060
vn 0.0619 -0.9741 0.2175
vn 0.2473 -0.4279 0.8693
vn 0.5447 0.4279 0.7213
vn 0.1363 0.9741 0.1805
vn -0.3797 0.7766 -0.5028
vn -0.6026 0.0000 -0.7980
vn -0.3797 -0.7766 -0.5028
vn 0.1363 -0.9741 0.1805
vn 0.5447 -0.4279 0.7213
vn 0.7685 0.4279 0.4758
vn 0.1923 0.9741 0.1191
vn -0.5357 0.7766 -0.3317
vn -0.8502 0.0000 -0.5264
vn -0.5357 -0.7766 -0.3317
vn 0.1923 -0.9741 0.1191
vn 0.7685 -0.4279 0.4758
vn 0.8885 0.4279 0.1661
vn 0.2223 0.9741 0.0416
vn -0.6193 0.7766 -0.1158
vn -0.9830 0.0000 -0.1837
vn -0.6193 -0.7766 -0.1158
vn 0.2223 -0.9741 0.0416
vn 0.8885 -0.4279 0.1661
vn -0.6679 0.4279 -0.6089
vn -0.6679 -0.4279 -0.6089
usemtl None
s off
f 8//1 2//1 1//1
f 9//2 3//2 2//2
f 10//3 4//3 3//3
f 11//4 5//4 4//4
f 5//5 13//5 6//5
f 13//6 7//6 6//6
f 14//7 1//7 7//7
f 15//8 9//8 8//8
f 16//9 10//9 9//9
f 17//10 11//10 10//10
f 18//11 12//11 11//11
f 19//12 13//12 12//12
f 20//13 14//13 13//13
f 21//14 8//14 14//14
f 22//15 16//15 15//15
f 23//16 17//16 16//16
f 24//17 18//17 17//17
f 25//18 19//18 18//18
f 19//19 27//19 20//19
f 20//20 28//20 21//20
f 28//21 15//21 21//21
f 29//22 23//22 22//22
f 30//23 24//23 23//23
f 31//24 25//24 24//24
f 32//25 26//25 25//25
f 33//26 27//26 26//26
f 34//27 28//27 27//27
f 35//28 22//28 28//28
f 36//29 30//29 29//29
f 37//30 31//30 30//30
f 38//31 32//31 31//31
f 39//32 33//32 32//32
f 33//33 41//33 34//33
f 41//34 35//34 34//34
f 42//35 29//35 35//35
f 43//36 37//36 36//36
f 37//37 45//37 38//37
f 38//38 46//38 39//38
f 46//39 40//39 39//39
f 40//40 48//40 41//40
f 48//41 42//41 41//41
f 49//42 36//42 42//42
f 50//43 44//43 43//43
f 51//44 45//44 44//44
f 52//45 46//45 45//45
f 53//46 47//46 46//46
f 54//47 48//47 47//47
f 55//48 49//48 48//48
f 49//49 50//49 43//49
f 57//50 51//50 50//50
f 51//51 59//51 52//51
f 52//52 60//52 53//52
f 60//53 54//53 53//53
f 61//54 55//54 54//54
f 62//55 56//55 55//55
f 63//56 50//56 56//56
f 64//57 58//57 57//57
f 65//58 59//58 58//58
f 66//59 60//59 59//59
f 67//60 61//60 60//60
f 68//61 62//61 61//61
f 69//62 63//62 62//62
f 70//63 57//63 63//63
f 71//64 65//64 64//64
f 72//65 66//65 65//65
f 73//66 67//66 66//66
f 74//67 68//67 67//67
f 75//68 69//68 68//68
f 76//69 70//69 69//69
f 77//70 64//70 70//70
f 71//71 79//71 72//71
f 79//72 73//72 72//72
f 73//73 81//73 74//73
f 81//74 75//74 74//74
f 82//75 76//75 75//75
f 83//76 77//76 76//76
f 84//77 71//77 77//77
f 85//78 79//78 78//78
f 86//79 80//79 79//79
f 87//80 81//80 80//80
f 88//81 82//81 81//81
f 89//82 83//82 82//82
f 90//83 84//83 83//83
f 91//84 78//84 84//84
f 92//85 86//85 85//85
f 93//86 87//86 86//86
f 94//87 88//87 87//87
f 95//88 89//88 88//88
f 96//89 90//89 89//89
f 97//90 91//90 90//90
f 98//91 85//91 91//91
f 99//92 93//92 92//92
f 100//93 94//93 93//93
f 101//94 95//94 94//94
f 102//95 96//95 95//95
f 103//96 97//96 96//96
f 104//97 98//97 97//97
f 105//98 92//98 98//98
f 106//99 100//99 99//99
f 107//100 101//100 100//100
f 101//101 109//101 102//101
f 109//102 103//102 102//102
f 110//103 104//103 103//103
f 111//104 105//104 104//104
f 112//105 99//105 105//105
f 113//106 107//106 106//106
f 114//107 108//107 107//107
f 115//108 109//108 108//108
f 116//109 110//109 109//109
f 117//110 111//110 110//110
f 118//111 112//111 111//111
f 119//112 106//112 112//112
f 1//113 114//113 113//113
f 2//114 115//114 114//114
f 3//115 116//115 115//115
f 4//116 117//116 116//116
f 5//117 118//117 117//117
f 118//118 7//118 119//118
f 119//119 1//119 113//119
f 8//1 9//1 2//1
f 9//2 10//2 3//2
f 10//3 11//3 4//3
f 11//4 12//4 5//4
f 5//5 12//5 13//5
f 13//6 14//6 7//6
f 14//7 8//7 1//7
f 15//8 16//8 9//8
f 16//9 17//9 10//9
f 17//10 18//10 11//10
f 18//11 19//11 12//11
f 19//12 20//12 13//12
f 20//13 21//13 14//13
f 21//14 15//14 8//14
f 22//15 23//15 16//15
f 23//16 24//16 17//16
f 24//17 25//17 18//17
f 25//18 26//18 19//18
f 19//19 26//19 27//19
f 20//20 27//20 28//20
f 28//21 22//21 15//21
f 29//22 30//22 23//22
f 30//23 31//23 24//23
f 31//24 32//24 25//24
f 32//25 33//25 26//25
f 33//26 34//26 27//26
f 34//27 35//27 28//27
f 35//28 29//28 22//28
f 36//29 37//29 30//29
f 37//30 38//30 31//30
f 38//31 39//31 32//31
f 39//32 40//32 33//32
f 33//33 40//33 41//33
f 41//34 42//34 35//34
f 42//35 36//35 29//35
f 43//36 44//36 37//36
f 37//37 44//37 45//37
f 38//38 45//38 46//38
f 46//39 47//39 40//39
f 40//40 47//40 48//40
f 48//41 49//41 42//41
f 49//42 43//42 36//42
f 50//120 51//120 44//120
f 51//44 52//44 45//44
f 52//45 53//45 46//45
f 53//46 54//46 47//46
f 54//47 55//47 48//47
f 55//48 56//48 49//48
f 49//121 56//121 50//121
f 57//50 58//50 51//50
f 51//51 58//51 59//51
f 52//52 59//52 60//52
f 60//53 61//53 54//53
f 61//54 62//54 55//54
f 62//55 63//55 56//55
f 63//56 57//56 50//56
f 64//57 65//57 58//57
f 65//58 66//58 59//58
f 66//59 67//59 60//59
f 67//60 68//60 61//60
f 68//61 69//61 62//61
f 69//62 70//62 63//62
f 70//63 64//63 57//63
f 71//64 72//64 65//64
f 72//65 73//65 66//65
f 73//66 74//66 67//66
f 74//67 75//67 68//67
f 75//68 76//68 69//68
f 76//69 77//69 70//69
f 77//70 71//70 64//70
f 71//71 78//71 79//71
f 79//72 80//72 73//72
f 73//73 80//73 81//73
f 81//74 82//74 75//74
f 82//75 83//75 76//75
f 83//76 84//76 77//76
f 84//77 78//77 71//77
f 85//78 86//78 79//78
f 86//79 87//79 80//79
f 87//80 88//80 81//80
f 88//81 89//81 82//81
f 89//82 90//82 83//82
f 90//83 91//83 84//83
f 91//84 85//84 78//84
f 92//85 93//85 86//85
f 93//86 94//86 87//86
f 94//87 95//87 88//87
f 95//88 96//88 89//88
f 96//89 97//89 90//89
f 97//90 98//90 91//90
f 98//91 92//91 85//91
f 99//92 100//92 93//92
f 100//93 101//93 94//93
f 101//94 102//94 95//94
f 102//95 103//95 96//95
f 103//96 104//96 97//96
f 104//97 105//97 98//97
f 105//98 99//98 92//98
f 106//99 107//99 100//99
f 107//100 108//100 101//100
f 101//101 108//101 109//101
f 109//102 110//102 103//102
f 110//103 111//103 104//103
f 111//104 112//104 105//104
f 112//105 106//105 99//105
f 113//106 114//106 107//106
f 114//107 115//107 108//107
f 115//108 116//108 109//108
f 116//109 117//109 110//109
f 117//110 118//110 111//110
f 118//111 119//111 112//111
f 119//112 113//112 106//112
f 1//113 2//113 114//113
f 2//114 3//114 115//114
f 3//115 4//115 116//115
f 4//116 5//116 117//116
f 5//117 6//117 118//117
f 118//118 6//118 7//118
f 119//119 7//119 1//119
